Coordinates
version=1
nRows=8
nColumns=40
inDegrees=yes

Units are S.I. units (second, meters, Newtons, ...)
If the header above contains a line with 'inDegrees', this indicates whether rotational values are in degrees (yes) or radians (no).

endheader
time	pelvis_tilt	pelvis_list	pelvis_rotation	pelvis_tx	pelvis_ty	pelvis_tz	hip_flexion_r	hip_adduction_r	hip_rotation_r	knee_angle_r	knee_angle_r_beta	ankle_angle_r	subtalar_angle_r	mtp_angle_r	hip_flexion_l	hip_adduction_l	hip_rotation_l	knee_angle_l	knee_angle_l_beta	ankle_angle_l	subtalar_angle_l	mtp_angle_l	lumbar_extension	lumbar_bending	lumbar_rotation	arm_flex_r	arm_add_r	arm_rot_r	elbow_flex_r	pro_sup_r	wrist_flex_r	wrist_dev_r	arm_flex_l	arm_add_l	arm_rot_l	elbow_flex_l	pro_sup_l	wrist_flex_l	wrist_dev_l
     13.10000000	    -17.85106874	      0.96951174	    175.60848999	      0.18639257	      0.87310454	     -0.90273788	     -4.59923643	    -29.76030166	    -30.26874108	     14.42983053	      0.25184805	    -11.72891438	      0.00000000	      0.00000000	    -16.10965767	    -27.17636581	    -37.12656775	      8.13827827	      0.14203975	     -6.66958450	      0.00000000	      0.00000000	    -23.67778689	      1.94243068	      2.25215772	     13.56846749	     -6.17045161	     35.05149993	      4.40337093	     15.52323881	      0.00000000	      0.00000000	     18.66451204	     -3.95477076	     72.26206806	      8.21820213	     83.25080699	      0.00000000	      0.00000000
     13.10500000	    -17.81288041	      1.06696350	    175.82236559	      0.18628527	      0.87295341	     -0.90232284	     -4.74791882	    -29.62253580	    -30.62415410	     14.34399029	      0.25034986	    -11.76875345	      0.00000000	      0.00000000	    -15.85273488	    -27.42493455	    -37.02640188	      8.48632373	      0.14811429	     -6.25279268	      0.00000000	      0.00000000	    -23.57345953	      2.15348567	      2.09877040	     13.38556313	     -6.34937984	     35.82701003	      4.31771182	     17.21348287	      0.00000000	      0.00000000	     18.65486302	     -3.93041982	     72.39387935	      8.19307843	     83.65684026	      0.00000000	      0.00000000
     13.11000000	    -17.95572960	      0.87819223	    175.72055382	      0.18669260	      0.87323498	     -0.90253344	     -4.83649049	    -29.82564853	    -30.48125644	     14.30137824	      0.24960614	    -11.77477302	      0.00000000	      0.00000000	    -16.01336476	    -27.13544746	    -37.04118218	      8.38569607	      0.14635801	     -6.31464047	      0.00000000	      0.00000000	    -23.72063506	      1.91681779	      2.11854126	     13.50317687	     -6.15244287	     35.41807786	      4.38430590	     15.55922720	      0.00000000	      0.00000000	     18.70867560	     -3.93175196	     72.43073781	      8.16519425	     83.45771773	      0.00000000	      0.00000000
     13.11500000	    -17.95734229	      0.99267745	    175.80921204	      0.18666074	      0.87316064	     -0.90222277	     -4.93740616	    -29.68595562	    -30.65245961	     14.22923757	      0.24834705	    -11.81416080	      0.00000000	      0.00000000	    -15.96420798	    -27.29626062	    -37.03030733	      8.45850346	      0.14762874	     -6.26978474	      0.00000000	      0.00000000	    -23.68113443	      2.10544152	      2.06594393	     13.46669679	     -6.22065623	     35.49044578	      4.47462559	     15.47326645	      0.00000000	      0.00000000	     18.68032019	     -3.87566080	     72.33064318	      8.12634291	     83.55778857	      0.00000000	      0.00000000
     13.12000000	    -18.04441538	      0.99522717	    175.67874044	      0.18701194	      0.87334885	     -0.90238787	     -4.97880540	    -29.66299038	    -30.43153737	     14.12815743	      0.24658286	    -11.85409423	      0.00000000	      0.00000000	    -16.16621078	    -27.20466989	    -37.08239883	      8.29185953	      0.14472025	     -6.44749632	      0.00000000	      0.00000000	    -23.78148449	      2.07669895	      2.15785252	     13.54429659	     -6.15945695	     35.46421663	      4.49132685	     14.63261217	      0.00000000	      0.00000000	     18.69730671	     -3.83949890	     72.24414059	      8.07255535	     83.20955549	      0.00000000	      0.00000000
     13.12500000	    -18.00100969	      1.11225288	    175.82719957	      0.18699804	      0.87320284	     -0.90195253	     -5.07283613	    -29.50368665	    -30.65550352	     14.03267664	      0.24491641	    -11.89324430	      0.00000000	      0.00000000	    -15.97072049	    -27.43676535	    -37.03089315	      8.52880077	      0.14885565	     -6.23250406	      0.00000000	      0.00000000	    -23.69826921	      2.29657993	      2.09745296	     13.48304973	     -6.30613960	     35.19938675	      4.31156621	     17.04564150	      0.00000000	      0.00000000	     18.70033602	     -3.77259627	     72.37079578	      8.03243517	     83.42174728	      0.00000000	      0.00000000
     13.13000000	    -18.14912134	      0.85862000	    175.70339699	      0.18733420	      0.87351963	     -0.90222680	     -5.13338931	    -29.80006441	    -30.54874730	     14.03605112	      0.24497531	    -11.90408444	      0.00000000	      0.00000000	    -16.17675328	    -27.05516762	    -37.05099405	      8.33976052	      0.14555628	     -6.49392244	      0.00000000	      0.00000000	    -23.83838990	      1.97374889	      2.09113696	     13.55180416	     -6.15176733	     35.13656151	      4.44182894	     15.44587558	      0.00000000	      0.00000000	     18.74087325	     -3.86643119	     72.45787237	      8.09683063	     83.48693083	      0.00000000	      0.00000000
     13.13500000	    -18.02708159	      0.97751550	    175.73916401	      0.18749993	      0.87329567	     -0.90199515	     -5.00784496	    -29.66215564	    -30.52143519	     14.03735483	      0.24499806	    -11.91939674	      0.00000000	      0.00000000	    -15.97592545	    -27.24957437	    -37.04134165	      8.51665783	      0.14864372	     -6.25919650	      0.00000000	      0.00000000	    -23.69463087	      2.15443706	      2.13482749	     13.51434831	     -6.22075525	     35.07977625	      4.51513271	     15.33949219	      0.00000000	      0.00000000	     18.74973626	     -3.79125618	     72.67817729	      8.03822816	     83.42014678	      0.00000000	      0.00000000
